<mxfile host="app.diagrams.net" modified="2023-09-18T07:57:20.652Z" agent="Mozilla/5.0 (Windows NT 10.0; Win64; x64) AppleWebKit/537.36 (KHTML, like Gecko) Chrome/116.0.0.0 Safari/537.36" version="21.7.5" etag="uckuQ4w7XqGXsagZUAU7" type="github">
  <diagram name="Page-1" id="CSEEEu35cXwi_lb4nhBm">
    <mxGraphModel>
      <root>
        <mxCell id="0" />
        <mxCell id="1" parent="0" />
      </root>
    </mxGraphModel>
  </diagram>
</mxfile>
